<?xml version="1.0" encoding="UTF-8" standalone="no"?>
<svg
   width="167.22578"
   height="40.993401"
   viewBox="0 0 167.22578 40.993401"
   fill="none"
   version="1.1"
   id="svg9178"
   sodipodi:docname="logo_bare_witg_R_wht.svg"
   inkscape:version="1.2.1 (0f2f062aeb, 2022-09-21, custom)"
   xmlns:inkscape="http://www.inkscape.org/namespaces/inkscape"
   xmlns:sodipodi="http://sodipodi.sourceforge.net/DTD/sodipodi-0.dtd"
   xmlns:xlink="http://www.w3.org/1999/xlink"
   xmlns="http://www.w3.org/2000/svg"
   xmlns:svg="http://www.w3.org/2000/svg">
  <defs
     id="defs9182">
    <clipPath
       id="SVGID_2_">
				<use
   xlink:href="#SVGID_1_"
   overflow="visible"
   id="use1286"
   x="0"
   y="0"
   width="100%"
   height="100%" />

			</clipPath>
    <clipPath
       id="clipPath9674">
				<use
   xlink:href="#SVGID_1_"
   overflow="visible"
   id="use9672"
   x="0"
   y="0"
   width="100%"
   height="100%" />

			</clipPath>
    <clipPath
       id="clipPath9678">
				<use
   xlink:href="#SVGID_1_"
   overflow="visible"
   id="use9676"
   x="0"
   y="0"
   width="100%"
   height="100%" />

			</clipPath>
    <clipPath
       id="clipPath9682">
				<use
   xlink:href="#SVGID_1_"
   overflow="visible"
   id="use9680"
   x="0"
   y="0"
   width="100%"
   height="100%" />

			</clipPath>
    <clipPath
       id="clipPath9686">
				<use
   xlink:href="#SVGID_1_"
   overflow="visible"
   id="use9684"
   x="0"
   y="0"
   width="100%"
   height="100%" />

			</clipPath>
    <clipPath
       id="clipPath9690">
				<use
   xlink:href="#SVGID_1_"
   overflow="visible"
   id="use9688"
   x="0"
   y="0"
   width="100%"
   height="100%" />

			</clipPath>
    <clipPath
       id="clipPath9694">
				<use
   xlink:href="#SVGID_1_"
   overflow="visible"
   id="use9692"
   x="0"
   y="0"
   width="100%"
   height="100%" />

			</clipPath>
    <clipPath
       id="clipPath9698">
				<use
   xlink:href="#SVGID_1_"
   overflow="visible"
   id="use9696"
   x="0"
   y="0"
   width="100%"
   height="100%" />

			</clipPath>
    <clipPath
       id="clipPath9702">
				<use
   xlink:href="#SVGID_1_"
   overflow="visible"
   id="use9700"
   x="0"
   y="0"
   width="100%"
   height="100%" />

			</clipPath>
    <clipPath
       id="clipPath9706">
				<use
   xlink:href="#SVGID_1_"
   overflow="visible"
   id="use9704"
   x="0"
   y="0"
   width="100%"
   height="100%" />

			</clipPath>
    <clipPath
       id="clipPath9710">
				<use
   xlink:href="#SVGID_1_"
   overflow="visible"
   id="use9708"
   x="0"
   y="0"
   width="100%"
   height="100%" />

			</clipPath>
    <clipPath
       id="clipPath9714">
				<use
   xlink:href="#SVGID_1_"
   overflow="visible"
   id="use9712"
   x="0"
   y="0"
   width="100%"
   height="100%" />

			</clipPath>
    <clipPath
       id="clipPath9718">
				<use
   xlink:href="#SVGID_1_"
   overflow="visible"
   id="use9716"
   x="0"
   y="0"
   width="100%"
   height="100%" />

			</clipPath>
    <clipPath
       id="clipPath9722">
				<use
   xlink:href="#SVGID_1_"
   overflow="visible"
   id="use9720"
   x="0"
   y="0"
   width="100%"
   height="100%" />

			</clipPath>
    <clipPath
       id="clipPath9726">
				<use
   xlink:href="#SVGID_1_"
   overflow="visible"
   id="use9724"
   x="0"
   y="0"
   width="100%"
   height="100%" />

			</clipPath>
    <clipPath
       id="clipPath9730">
				<use
   xlink:href="#SVGID_1_"
   overflow="visible"
   id="use9728"
   x="0"
   y="0"
   width="100%"
   height="100%" />

			</clipPath>
    <clipPath
       id="clipPath9734">
				<use
   xlink:href="#SVGID_1_"
   overflow="visible"
   id="use9732"
   x="0"
   y="0"
   width="100%"
   height="100%" />

			</clipPath>
    <clipPath
       id="clipPath9738">
				<use
   xlink:href="#SVGID_1_"
   overflow="visible"
   id="use9736"
   x="0"
   y="0"
   width="100%"
   height="100%" />

			</clipPath>
    <clipPath
       id="clipPath9742">
				<use
   xlink:href="#SVGID_1_"
   overflow="visible"
   id="use9740"
   x="0"
   y="0"
   width="100%"
   height="100%" />

			</clipPath>
    <clipPath
       id="clipPath9746">
				<use
   xlink:href="#SVGID_1_"
   overflow="visible"
   id="use9744"
   x="0"
   y="0"
   width="100%"
   height="100%" />

			</clipPath>
    <clipPath
       id="clipPath9750">
				<use
   xlink:href="#SVGID_1_"
   overflow="visible"
   id="use9748"
   x="0"
   y="0"
   width="100%"
   height="100%" />

			</clipPath>
    <clipPath
       id="clipPath9754">
				<use
   xlink:href="#SVGID_1_"
   overflow="visible"
   id="use9752"
   x="0"
   y="0"
   width="100%"
   height="100%" />

			</clipPath>
    <clipPath
       id="clipPath9758">
				<use
   xlink:href="#SVGID_1_"
   overflow="visible"
   id="use9756"
   x="0"
   y="0"
   width="100%"
   height="100%" />

			</clipPath>
    <clipPath
       id="clipPath9762">
				<use
   xlink:href="#SVGID_1_"
   overflow="visible"
   id="use9760"
   x="0"
   y="0"
   width="100%"
   height="100%" />

			</clipPath>
    <clipPath
       id="clipPath9766">
				<use
   xlink:href="#SVGID_1_"
   overflow="visible"
   id="use9764"
   x="0"
   y="0"
   width="100%"
   height="100%" />

			</clipPath>
    <clipPath
       id="clipPath9770">
				<use
   xlink:href="#SVGID_1_"
   overflow="visible"
   id="use9768"
   x="0"
   y="0"
   width="100%"
   height="100%" />

			</clipPath>
    <clipPath
       id="clipPath9774">
				<use
   xlink:href="#SVGID_1_"
   overflow="visible"
   id="use9772"
   x="0"
   y="0"
   width="100%"
   height="100%" />

			</clipPath>
    <clipPath
       id="clipPath9778">
				<use
   xlink:href="#SVGID_1_"
   overflow="visible"
   id="use9776"
   x="0"
   y="0"
   width="100%"
   height="100%" />

			</clipPath>
    <clipPath
       id="clipPath9782">
				<use
   xlink:href="#SVGID_1_"
   overflow="visible"
   id="use9780"
   x="0"
   y="0"
   width="100%"
   height="100%" />

			</clipPath>
    <clipPath
       id="clipPath9786">
				<use
   xlink:href="#SVGID_1_"
   overflow="visible"
   id="use9784"
   x="0"
   y="0"
   width="100%"
   height="100%" />

			</clipPath>
    <clipPath
       id="clipPath9790">
				<use
   xlink:href="#SVGID_1_"
   overflow="visible"
   id="use9788"
   x="0"
   y="0"
   width="100%"
   height="100%" />

			</clipPath>
    <clipPath
       id="clipPath9794">
				<use
   xlink:href="#SVGID_1_"
   overflow="visible"
   id="use9792"
   x="0"
   y="0"
   width="100%"
   height="100%" />

			</clipPath>
    <clipPath
       id="clipPath9798">
				<use
   xlink:href="#SVGID_1_"
   overflow="visible"
   id="use9796"
   x="0"
   y="0"
   width="100%"
   height="100%" />

			</clipPath>
    <clipPath
       id="clipPath9802">
				<use
   xlink:href="#SVGID_1_"
   overflow="visible"
   id="use9800"
   x="0"
   y="0"
   width="100%"
   height="100%" />

			</clipPath>
    <clipPath
       id="clipPath9806">
				<use
   xlink:href="#SVGID_1_"
   overflow="visible"
   id="use9804"
   x="0"
   y="0"
   width="100%"
   height="100%" />

			</clipPath>
    <clipPath
       id="clipPath9810">
				<use
   xlink:href="#SVGID_1_"
   overflow="visible"
   id="use9808"
   x="0"
   y="0"
   width="100%"
   height="100%" />

			</clipPath>
    <clipPath
       id="clipPath9814">
				<use
   xlink:href="#SVGID_1_"
   overflow="visible"
   id="use9812"
   x="0"
   y="0"
   width="100%"
   height="100%" />

			</clipPath>
    <clipPath
       id="clipPath9818">
				<use
   xlink:href="#SVGID_1_"
   overflow="visible"
   id="use9816"
   x="0"
   y="0"
   width="100%"
   height="100%" />

			</clipPath>
    <clipPath
       id="clipPath9822">
				<use
   xlink:href="#SVGID_1_"
   overflow="visible"
   id="use9820"
   x="0"
   y="0"
   width="100%"
   height="100%" />

			</clipPath>
    <clipPath
       id="clipPath9826">
				<use
   xlink:href="#SVGID_1_"
   overflow="visible"
   id="use9824"
   x="0"
   y="0"
   width="100%"
   height="100%" />

			</clipPath>
    <clipPath
       id="clipPath9830">
				<use
   xlink:href="#SVGID_1_"
   overflow="visible"
   id="use9828"
   x="0"
   y="0"
   width="100%"
   height="100%" />

			</clipPath>
    <clipPath
       id="clipPath9834">
				<use
   xlink:href="#SVGID_1_"
   overflow="visible"
   id="use9832"
   x="0"
   y="0"
   width="100%"
   height="100%" />

			</clipPath>
    <clipPath
       id="clipPath9838">
				<use
   xlink:href="#SVGID_1_"
   overflow="visible"
   id="use9836"
   x="0"
   y="0"
   width="100%"
   height="100%" />

			</clipPath>
    <clipPath
       id="clipPath9842">
				<use
   xlink:href="#SVGID_1_"
   overflow="visible"
   id="use9840"
   x="0"
   y="0"
   width="100%"
   height="100%" />

			</clipPath>
    <clipPath
       id="clipPath9846">
				<use
   xlink:href="#SVGID_1_"
   overflow="visible"
   id="use9844"
   x="0"
   y="0"
   width="100%"
   height="100%" />

			</clipPath>
    <clipPath
       id="clipPath9850">
				<use
   xlink:href="#SVGID_1_"
   overflow="visible"
   id="use9848"
   x="0"
   y="0"
   width="100%"
   height="100%" />

			</clipPath>
    <clipPath
       id="clipPath9854">
				<use
   xlink:href="#SVGID_1_"
   overflow="visible"
   id="use9852"
   x="0"
   y="0"
   width="100%"
   height="100%" />

			</clipPath>
    <clipPath
       id="clipPath9858">
				<use
   xlink:href="#SVGID_1_"
   overflow="visible"
   id="use9856"
   x="0"
   y="0"
   width="100%"
   height="100%" />

			</clipPath>
    <clipPath
       id="clipPath9862">
				<use
   xlink:href="#SVGID_1_"
   overflow="visible"
   id="use9860"
   x="0"
   y="0"
   width="100%"
   height="100%" />

			</clipPath>
    <clipPath
       id="clipPath9866">
				<use
   xlink:href="#SVGID_1_"
   overflow="visible"
   id="use9864"
   x="0"
   y="0"
   width="100%"
   height="100%" />

			</clipPath>
    <clipPath
       id="clipPath9870">
				<use
   xlink:href="#SVGID_1_"
   overflow="visible"
   id="use9868"
   x="0"
   y="0"
   width="100%"
   height="100%" />

			</clipPath>
    <clipPath
       id="clipPath9874">
				<use
   xlink:href="#SVGID_1_"
   overflow="visible"
   id="use9872"
   x="0"
   y="0"
   width="100%"
   height="100%" />

			</clipPath>
    <clipPath
       id="clipPath9878">
				<use
   xlink:href="#SVGID_1_"
   overflow="visible"
   id="use9876"
   x="0"
   y="0"
   width="100%"
   height="100%" />

			</clipPath>
    <clipPath
       id="clipPath9882">
				<use
   xlink:href="#SVGID_1_"
   overflow="visible"
   id="use9880"
   x="0"
   y="0"
   width="100%"
   height="100%" />

			</clipPath>
    <clipPath
       id="clipPath9886">
				<use
   xlink:href="#SVGID_1_"
   overflow="visible"
   id="use9884"
   x="0"
   y="0"
   width="100%"
   height="100%" />

			</clipPath>
    <clipPath
       id="clipPath9890">
				<use
   xlink:href="#SVGID_1_"
   overflow="visible"
   id="use9888"
   x="0"
   y="0"
   width="100%"
   height="100%" />

			</clipPath>
    <clipPath
       id="clipPath9894">
				<use
   xlink:href="#SVGID_1_"
   overflow="visible"
   id="use9892"
   x="0"
   y="0"
   width="100%"
   height="100%" />

			</clipPath>
    <clipPath
       id="clipPath9898">
				<use
   xlink:href="#SVGID_1_"
   overflow="visible"
   id="use9896"
   x="0"
   y="0"
   width="100%"
   height="100%" />

			</clipPath>
    <clipPath
       id="clipPath9902">
				<use
   xlink:href="#SVGID_1_"
   overflow="visible"
   id="use9900"
   x="0"
   y="0"
   width="100%"
   height="100%" />

			</clipPath>
    <clipPath
       id="clipPath9906">
				<use
   xlink:href="#SVGID_1_"
   overflow="visible"
   id="use9904"
   x="0"
   y="0"
   width="100%"
   height="100%" />

			</clipPath>
    <clipPath
       id="clipPath9910">
				<use
   xlink:href="#SVGID_1_"
   overflow="visible"
   id="use9908"
   x="0"
   y="0"
   width="100%"
   height="100%" />

			</clipPath>
    <clipPath
       id="clipPath9914">
				<use
   xlink:href="#SVGID_1_"
   overflow="visible"
   id="use9912"
   x="0"
   y="0"
   width="100%"
   height="100%" />

			</clipPath>
    <clipPath
       id="clipPath9918">
				<use
   xlink:href="#SVGID_1_"
   overflow="visible"
   id="use9916"
   x="0"
   y="0"
   width="100%"
   height="100%" />

			</clipPath>
    <clipPath
       id="clipPath9922">
				<use
   xlink:href="#SVGID_1_"
   overflow="visible"
   id="use9920"
   x="0"
   y="0"
   width="100%"
   height="100%" />

			</clipPath>
    <clipPath
       id="clipPath9926">
				<use
   xlink:href="#SVGID_1_"
   overflow="visible"
   id="use9924"
   x="0"
   y="0"
   width="100%"
   height="100%" />

			</clipPath>
    <clipPath
       id="clipPath9930">
				<use
   xlink:href="#SVGID_1_"
   overflow="visible"
   id="use9928"
   x="0"
   y="0"
   width="100%"
   height="100%" />

			</clipPath>
    <clipPath
       id="clipPath9934">
				<use
   xlink:href="#SVGID_1_"
   overflow="visible"
   id="use9932"
   x="0"
   y="0"
   width="100%"
   height="100%" />

			</clipPath>
    <clipPath
       id="clipPath9938">
				<use
   xlink:href="#SVGID_1_"
   overflow="visible"
   id="use9936"
   x="0"
   y="0"
   width="100%"
   height="100%" />

			</clipPath>
    <clipPath
       id="clipPath9942">
				<use
   xlink:href="#SVGID_1_"
   overflow="visible"
   id="use9940"
   x="0"
   y="0"
   width="100%"
   height="100%" />

			</clipPath>
    <clipPath
       id="clipPath9946">
				<use
   xlink:href="#SVGID_1_"
   overflow="visible"
   id="use9944"
   x="0"
   y="0"
   width="100%"
   height="100%" />

			</clipPath>
    <clipPath
       id="clipPath9950">
				<use
   xlink:href="#SVGID_1_"
   overflow="visible"
   id="use9948"
   x="0"
   y="0"
   width="100%"
   height="100%" />

			</clipPath>
    <clipPath
       id="clipPath9954">
				<use
   xlink:href="#SVGID_1_"
   overflow="visible"
   id="use9952"
   x="0"
   y="0"
   width="100%"
   height="100%" />

			</clipPath>
    <clipPath
       id="clipPath9958">
				<use
   xlink:href="#SVGID_1_"
   overflow="visible"
   id="use9956"
   x="0"
   y="0"
   width="100%"
   height="100%" />

			</clipPath>
    <clipPath
       id="clipPath9962">
				<use
   xlink:href="#SVGID_1_"
   overflow="visible"
   id="use9960"
   x="0"
   y="0"
   width="100%"
   height="100%" />

			</clipPath>
    <clipPath
       id="clipPath9966">
				<use
   xlink:href="#SVGID_1_"
   overflow="visible"
   id="use9964"
   x="0"
   y="0"
   width="100%"
   height="100%" />

			</clipPath>
    <clipPath
       id="clipPath9970">
				<use
   xlink:href="#SVGID_1_"
   overflow="visible"
   id="use9968"
   x="0"
   y="0"
   width="100%"
   height="100%" />

			</clipPath>
    <clipPath
       id="clipPath9974">
				<use
   xlink:href="#SVGID_1_"
   overflow="visible"
   id="use9972"
   x="0"
   y="0"
   width="100%"
   height="100%" />

			</clipPath>
    <clipPath
       id="clipPath9978">
				<use
   xlink:href="#SVGID_1_"
   overflow="visible"
   id="use9976"
   x="0"
   y="0"
   width="100%"
   height="100%" />

			</clipPath>
    <clipPath
       id="clipPath9982">
				<use
   xlink:href="#SVGID_1_"
   overflow="visible"
   id="use9980"
   x="0"
   y="0"
   width="100%"
   height="100%" />

			</clipPath>
    <clipPath
       id="clipPath9986">
				<use
   xlink:href="#SVGID_1_"
   overflow="visible"
   id="use9984"
   x="0"
   y="0"
   width="100%"
   height="100%" />

			</clipPath>
    <clipPath
       id="clipPath9990">
				<use
   xlink:href="#SVGID_1_"
   overflow="visible"
   id="use9988"
   x="0"
   y="0"
   width="100%"
   height="100%" />

			</clipPath>
    <clipPath
       id="clipPath9994">
				<use
   xlink:href="#SVGID_1_"
   overflow="visible"
   id="use9992"
   x="0"
   y="0"
   width="100%"
   height="100%" />

			</clipPath>
    <clipPath
       id="clipPath9998">
				<use
   xlink:href="#SVGID_1_"
   overflow="visible"
   id="use9996"
   x="0"
   y="0"
   width="100%"
   height="100%" />

			</clipPath>
    <clipPath
       id="clipPath10002">
				<use
   xlink:href="#SVGID_1_"
   overflow="visible"
   id="use10000"
   x="0"
   y="0"
   width="100%"
   height="100%" />

			</clipPath>
    <clipPath
       id="clipPath10006">
				<use
   xlink:href="#SVGID_1_"
   overflow="visible"
   id="use10004"
   x="0"
   y="0"
   width="100%"
   height="100%" />

			</clipPath>
    <clipPath
       id="clipPath10010">
				<use
   xlink:href="#SVGID_1_"
   overflow="visible"
   id="use10008"
   x="0"
   y="0"
   width="100%"
   height="100%" />

			</clipPath>
    <clipPath
       id="clipPath10014">
				<use
   xlink:href="#SVGID_1_"
   overflow="visible"
   id="use10012"
   x="0"
   y="0"
   width="100%"
   height="100%" />

			</clipPath>
    <clipPath
       id="clipPath10018">
				<use
   xlink:href="#SVGID_1_"
   overflow="visible"
   id="use10016"
   x="0"
   y="0"
   width="100%"
   height="100%" />

			</clipPath>
    <clipPath
       id="clipPath10022">
				<use
   xlink:href="#SVGID_1_"
   overflow="visible"
   id="use10020"
   x="0"
   y="0"
   width="100%"
   height="100%" />

			</clipPath>
    <clipPath
       id="clipPath10026">
				<use
   xlink:href="#SVGID_1_"
   overflow="visible"
   id="use10024"
   x="0"
   y="0"
   width="100%"
   height="100%" />

			</clipPath>
    <clipPath
       id="clipPath10030">
				<use
   xlink:href="#SVGID_1_"
   overflow="visible"
   id="use10028"
   x="0"
   y="0"
   width="100%"
   height="100%" />

			</clipPath>
    <clipPath
       id="clipPath10034">
				<use
   xlink:href="#SVGID_1_"
   overflow="visible"
   id="use10032"
   x="0"
   y="0"
   width="100%"
   height="100%" />

			</clipPath>
    <clipPath
       id="clipPath10038">
				<use
   xlink:href="#SVGID_1_"
   overflow="visible"
   id="use10036"
   x="0"
   y="0"
   width="100%"
   height="100%" />

			</clipPath>
    <clipPath
       id="clipPath10042">
				<use
   xlink:href="#SVGID_1_"
   overflow="visible"
   id="use10040"
   x="0"
   y="0"
   width="100%"
   height="100%" />

			</clipPath>
    <clipPath
       id="clipPath10046">
				<use
   xlink:href="#SVGID_1_"
   overflow="visible"
   id="use10044"
   x="0"
   y="0"
   width="100%"
   height="100%" />

			</clipPath>
    <clipPath
       id="clipPath10050">
				<use
   xlink:href="#SVGID_1_"
   overflow="visible"
   id="use10048"
   x="0"
   y="0"
   width="100%"
   height="100%" />

			</clipPath>
    <clipPath
       id="clipPath10054">
				<use
   xlink:href="#SVGID_1_"
   overflow="visible"
   id="use10052"
   x="0"
   y="0"
   width="100%"
   height="100%" />

			</clipPath>
    <clipPath
       id="clipPath10058">
				<use
   xlink:href="#SVGID_1_"
   overflow="visible"
   id="use10056"
   x="0"
   y="0"
   width="100%"
   height="100%" />

			</clipPath>
    <clipPath
       id="clipPath10062">
				<use
   xlink:href="#SVGID_1_"
   overflow="visible"
   id="use10060"
   x="0"
   y="0"
   width="100%"
   height="100%" />

			</clipPath>
    <clipPath
       id="clipPath10066">
				<use
   xlink:href="#SVGID_1_"
   overflow="visible"
   id="use10064"
   x="0"
   y="0"
   width="100%"
   height="100%" />

			</clipPath>
    <clipPath
       id="clipPath10070">
				<use
   xlink:href="#SVGID_1_"
   overflow="visible"
   id="use10068"
   x="0"
   y="0"
   width="100%"
   height="100%" />

			</clipPath>
    <clipPath
       id="clipPath10074">
				<use
   xlink:href="#SVGID_1_"
   overflow="visible"
   id="use10072"
   x="0"
   y="0"
   width="100%"
   height="100%" />

			</clipPath>
    <clipPath
       id="clipPath10078">
				<use
   xlink:href="#SVGID_1_"
   overflow="visible"
   id="use10076"
   x="0"
   y="0"
   width="100%"
   height="100%" />

			</clipPath>
    <clipPath
       id="clipPath10082">
				<use
   xlink:href="#SVGID_1_"
   overflow="visible"
   id="use10080"
   x="0"
   y="0"
   width="100%"
   height="100%" />

			</clipPath>
    <clipPath
       id="clipPath10086">
				<use
   xlink:href="#SVGID_1_"
   overflow="visible"
   id="use10084"
   x="0"
   y="0"
   width="100%"
   height="100%" />

			</clipPath>
    <clipPath
       id="clipPath10090">
				<use
   xlink:href="#SVGID_1_"
   overflow="visible"
   id="use10088"
   x="0"
   y="0"
   width="100%"
   height="100%" />

			</clipPath>
    <clipPath
       id="clipPath10094">
				<use
   xlink:href="#SVGID_1_"
   overflow="visible"
   id="use10092"
   x="0"
   y="0"
   width="100%"
   height="100%" />

			</clipPath>
    <clipPath
       id="clipPath10098">
				<use
   xlink:href="#SVGID_1_"
   overflow="visible"
   id="use10096"
   x="0"
   y="0"
   width="100%"
   height="100%" />

			</clipPath>
    <clipPath
       id="clipPath10102">
				<use
   xlink:href="#SVGID_1_"
   overflow="visible"
   id="use10100"
   x="0"
   y="0"
   width="100%"
   height="100%" />

			</clipPath>
    <clipPath
       id="clipPath10106">
				<use
   xlink:href="#SVGID_1_"
   overflow="visible"
   id="use10104"
   x="0"
   y="0"
   width="100%"
   height="100%" />

			</clipPath>
    <clipPath
       id="clipPath10110">
				<use
   xlink:href="#SVGID_1_"
   overflow="visible"
   id="use10108"
   x="0"
   y="0"
   width="100%"
   height="100%" />

			</clipPath>
    <clipPath
       id="clipPath10114">
				<use
   xlink:href="#SVGID_1_"
   overflow="visible"
   id="use10112"
   x="0"
   y="0"
   width="100%"
   height="100%" />

			</clipPath>
    <clipPath
       id="clipPath10118">
				<use
   xlink:href="#SVGID_1_"
   overflow="visible"
   id="use10116"
   x="0"
   y="0"
   width="100%"
   height="100%" />

			</clipPath>
    <clipPath
       id="clipPath10122">
				<use
   xlink:href="#SVGID_1_"
   overflow="visible"
   id="use10120"
   x="0"
   y="0"
   width="100%"
   height="100%" />

			</clipPath>
    <clipPath
       id="clipPath10126">
				<use
   xlink:href="#SVGID_1_"
   overflow="visible"
   id="use10124"
   x="0"
   y="0"
   width="100%"
   height="100%" />

			</clipPath>
    <clipPath
       id="clipPath10130">
				<use
   xlink:href="#SVGID_1_"
   overflow="visible"
   id="use10128"
   x="0"
   y="0"
   width="100%"
   height="100%" />

			</clipPath>
    <clipPath
       id="clipPath10134">
				<use
   xlink:href="#SVGID_1_"
   overflow="visible"
   id="use10132"
   x="0"
   y="0"
   width="100%"
   height="100%" />

			</clipPath>
    <clipPath
       id="clipPath10138">
				<use
   xlink:href="#SVGID_1_"
   overflow="visible"
   id="use10136"
   x="0"
   y="0"
   width="100%"
   height="100%" />

			</clipPath>
    <clipPath
       id="clipPath10142">
				<use
   xlink:href="#SVGID_1_"
   overflow="visible"
   id="use10140"
   x="0"
   y="0"
   width="100%"
   height="100%" />

			</clipPath>
    <clipPath
       id="clipPath10146">
				<use
   xlink:href="#SVGID_1_"
   overflow="visible"
   id="use10144"
   x="0"
   y="0"
   width="100%"
   height="100%" />

			</clipPath>
    <clipPath
       id="clipPath10150">
				<use
   xlink:href="#SVGID_1_"
   overflow="visible"
   id="use10148"
   x="0"
   y="0"
   width="100%"
   height="100%" />

			</clipPath>
    <clipPath
       id="clipPath10154">
				<use
   xlink:href="#SVGID_1_"
   overflow="visible"
   id="use10152"
   x="0"
   y="0"
   width="100%"
   height="100%" />

			</clipPath>
    <clipPath
       id="clipPath10158">
				<use
   xlink:href="#SVGID_1_"
   overflow="visible"
   id="use10156"
   x="0"
   y="0"
   width="100%"
   height="100%" />

			</clipPath>
    <clipPath
       id="clipPath10162">
				<use
   xlink:href="#SVGID_1_"
   overflow="visible"
   id="use10160"
   x="0"
   y="0"
   width="100%"
   height="100%" />

			</clipPath>
    <clipPath
       id="clipPath10166">
				<use
   xlink:href="#SVGID_1_"
   overflow="visible"
   id="use10164"
   x="0"
   y="0"
   width="100%"
   height="100%" />

			</clipPath>
    <clipPath
       id="clipPath10170">
				<use
   xlink:href="#SVGID_1_"
   overflow="visible"
   id="use10168"
   x="0"
   y="0"
   width="100%"
   height="100%" />

			</clipPath>
    <clipPath
       id="clipPath10174">
				<use
   xlink:href="#SVGID_1_"
   overflow="visible"
   id="use10172"
   x="0"
   y="0"
   width="100%"
   height="100%" />

			</clipPath>
    <clipPath
       id="clipPath10178">
				<use
   xlink:href="#SVGID_1_"
   overflow="visible"
   id="use10176"
   x="0"
   y="0"
   width="100%"
   height="100%" />

			</clipPath>
    <clipPath
       id="clipPath10182">
				<use
   xlink:href="#SVGID_1_"
   overflow="visible"
   id="use10180"
   x="0"
   y="0"
   width="100%"
   height="100%" />

			</clipPath>
    <clipPath
       id="clipPath10186">
				<use
   xlink:href="#SVGID_1_"
   overflow="visible"
   id="use10184"
   x="0"
   y="0"
   width="100%"
   height="100%" />

			</clipPath>
    <clipPath
       id="clipPath10190">
				<use
   xlink:href="#SVGID_1_"
   overflow="visible"
   id="use10188"
   x="0"
   y="0"
   width="100%"
   height="100%" />

			</clipPath>
    <clipPath
       id="clipPath10194">
				<use
   xlink:href="#SVGID_1_"
   overflow="visible"
   id="use10192"
   x="0"
   y="0"
   width="100%"
   height="100%" />

			</clipPath>
    <clipPath
       id="clipPath10198">
				<use
   xlink:href="#SVGID_1_"
   overflow="visible"
   id="use10196"
   x="0"
   y="0"
   width="100%"
   height="100%" />

			</clipPath>
    <clipPath
       id="clipPath10202">
				<use
   xlink:href="#SVGID_1_"
   overflow="visible"
   id="use10200"
   x="0"
   y="0"
   width="100%"
   height="100%" />

			</clipPath>
    <clipPath
       id="clipPath10206">
				<use
   xlink:href="#SVGID_1_"
   overflow="visible"
   id="use10204"
   x="0"
   y="0"
   width="100%"
   height="100%" />

			</clipPath>
    <clipPath
       id="clipPath10210">
				<use
   xlink:href="#SVGID_1_"
   overflow="visible"
   id="use10208"
   x="0"
   y="0"
   width="100%"
   height="100%" />

			</clipPath>
    <clipPath
       id="clipPath10214">
				<use
   xlink:href="#SVGID_1_"
   overflow="visible"
   id="use10212"
   x="0"
   y="0"
   width="100%"
   height="100%" />

			</clipPath>
    <clipPath
       id="clipPath10218">
				<use
   xlink:href="#SVGID_1_"
   overflow="visible"
   id="use10216"
   x="0"
   y="0"
   width="100%"
   height="100%" />

			</clipPath>
    <clipPath
       id="clipPath10222">
				<use
   xlink:href="#SVGID_1_"
   overflow="visible"
   id="use10220"
   x="0"
   y="0"
   width="100%"
   height="100%" />

			</clipPath>
    <clipPath
       id="clipPath10226">
				<use
   xlink:href="#SVGID_1_"
   overflow="visible"
   id="use10224"
   x="0"
   y="0"
   width="100%"
   height="100%" />

			</clipPath>
    <clipPath
       id="clipPath10230">
				<use
   xlink:href="#SVGID_1_"
   overflow="visible"
   id="use10228"
   x="0"
   y="0"
   width="100%"
   height="100%" />

			</clipPath>
    <clipPath
       id="clipPath10234">
				<use
   xlink:href="#SVGID_1_"
   overflow="visible"
   id="use10232"
   x="0"
   y="0"
   width="100%"
   height="100%" />

			</clipPath>
    <clipPath
       id="clipPath10238">
				<use
   xlink:href="#SVGID_1_"
   overflow="visible"
   id="use10236"
   x="0"
   y="0"
   width="100%"
   height="100%" />

			</clipPath>
    <clipPath
       id="clipPath10242">
				<use
   xlink:href="#SVGID_1_"
   overflow="visible"
   id="use10240"
   x="0"
   y="0"
   width="100%"
   height="100%" />

			</clipPath>
    <clipPath
       id="clipPath10246">
				<use
   xlink:href="#SVGID_1_"
   overflow="visible"
   id="use10244"
   x="0"
   y="0"
   width="100%"
   height="100%" />

			</clipPath>
    <clipPath
       id="clipPath10250">
				<use
   xlink:href="#SVGID_1_"
   overflow="visible"
   id="use10248"
   x="0"
   y="0"
   width="100%"
   height="100%" />

			</clipPath>
    <clipPath
       id="clipPath10254">
				<use
   xlink:href="#SVGID_1_"
   overflow="visible"
   id="use10252"
   x="0"
   y="0"
   width="100%"
   height="100%" />

			</clipPath>
    <clipPath
       id="clipPath10258">
				<use
   xlink:href="#SVGID_1_"
   overflow="visible"
   id="use10256"
   x="0"
   y="0"
   width="100%"
   height="100%" />

			</clipPath>
    <clipPath
       id="clipPath10262">
				<use
   xlink:href="#SVGID_1_"
   overflow="visible"
   id="use10260"
   x="0"
   y="0"
   width="100%"
   height="100%" />

			</clipPath>
    <clipPath
       id="clipPath10266">
				<use
   xlink:href="#SVGID_1_"
   overflow="visible"
   id="use10264"
   x="0"
   y="0"
   width="100%"
   height="100%" />

			</clipPath>
    <clipPath
       id="clipPath10270">
				<use
   xlink:href="#SVGID_1_"
   overflow="visible"
   id="use10268"
   x="0"
   y="0"
   width="100%"
   height="100%" />

			</clipPath>
    <clipPath
       id="clipPath10274">
				<use
   xlink:href="#SVGID_1_"
   overflow="visible"
   id="use10272"
   x="0"
   y="0"
   width="100%"
   height="100%" />

			</clipPath>
    <clipPath
       id="clipPath10278">
				<use
   xlink:href="#SVGID_1_"
   overflow="visible"
   id="use10276"
   x="0"
   y="0"
   width="100%"
   height="100%" />

			</clipPath>
    <clipPath
       id="clipPath10282">
				<use
   xlink:href="#SVGID_1_"
   overflow="visible"
   id="use10280"
   x="0"
   y="0"
   width="100%"
   height="100%" />

			</clipPath>
    <clipPath
       id="clipPath10286">
				<use
   xlink:href="#SVGID_1_"
   overflow="visible"
   id="use10284"
   x="0"
   y="0"
   width="100%"
   height="100%" />

			</clipPath>
    <clipPath
       id="clipPath10290">
				<use
   xlink:href="#SVGID_1_"
   overflow="visible"
   id="use10288"
   x="0"
   y="0"
   width="100%"
   height="100%" />

			</clipPath>
    <clipPath
       id="clipPath10294">
				<use
   xlink:href="#SVGID_1_"
   overflow="visible"
   id="use10292"
   x="0"
   y="0"
   width="100%"
   height="100%" />

			</clipPath>
    <clipPath
       id="clipPath10298">
				<use
   xlink:href="#SVGID_1_"
   overflow="visible"
   id="use10296"
   x="0"
   y="0"
   width="100%"
   height="100%" />

			</clipPath>
    <clipPath
       id="clipPath10302">
				<use
   xlink:href="#SVGID_1_"
   overflow="visible"
   id="use10300"
   x="0"
   y="0"
   width="100%"
   height="100%" />

			</clipPath>
    <clipPath
       id="clipPath10306">
				<use
   xlink:href="#SVGID_1_"
   overflow="visible"
   id="use10304"
   x="0"
   y="0"
   width="100%"
   height="100%" />

			</clipPath>
    <clipPath
       id="clipPath10310">
				<use
   xlink:href="#SVGID_1_"
   overflow="visible"
   id="use10308"
   x="0"
   y="0"
   width="100%"
   height="100%" />

			</clipPath>
    <clipPath
       id="clipPath10314">
				<use
   xlink:href="#SVGID_1_"
   overflow="visible"
   id="use10312"
   x="0"
   y="0"
   width="100%"
   height="100%" />

			</clipPath>
    <clipPath
       id="clipPath10318">
				<use
   xlink:href="#SVGID_1_"
   overflow="visible"
   id="use10316"
   x="0"
   y="0"
   width="100%"
   height="100%" />

			</clipPath>
    <clipPath
       id="clipPath10322">
				<use
   xlink:href="#SVGID_1_"
   overflow="visible"
   id="use10320"
   x="0"
   y="0"
   width="100%"
   height="100%" />

			</clipPath>
    <clipPath
       id="clipPath10326">
				<use
   xlink:href="#SVGID_1_"
   overflow="visible"
   id="use10324"
   x="0"
   y="0"
   width="100%"
   height="100%" />

			</clipPath>
    <clipPath
       id="clipPath10330">
				<use
   xlink:href="#SVGID_1_"
   overflow="visible"
   id="use10328"
   x="0"
   y="0"
   width="100%"
   height="100%" />

			</clipPath>
    <clipPath
       id="clipPath10334">
				<use
   xlink:href="#SVGID_1_"
   overflow="visible"
   id="use10332"
   x="0"
   y="0"
   width="100%"
   height="100%" />

			</clipPath>
    <path
       id="SVGID_1_"
       d="m 12.292,62.406 h 4.533 V 57.873 17.068 h 31.736 c 2.505,0 4.534,-2.029 4.534,-4.533 V 8.001 h -4.534 -36.27 c -2.504,0 -4.534,2.03 -4.534,4.534 v 4.533 40.805 c 0,2.504 2.031,4.533 4.535,4.533 z M 30.426,26.135 h -4.534 v 4.534 c 0,2.504 2.03,4.534 4.534,4.534 h 9.067 4.534 v 4.533 4.534 H 39.493 34.96 30.426 c -2.504,0 -4.534,2.029 -4.534,4.533 v 4.534 4.534 c 0,2.504 2.03,4.533 4.534,4.533 h 4.534 v -4.533 -4.534 h 9.067 4.533 c 2.505,0 4.534,-2.029 4.534,-4.534 V 44.27 35.203 30.67 c 0,-2.504 -2.029,-4.534 -4.534,-4.534 H 44.027 30.426 Z" />
  </defs>
  <sodipodi:namedview
     id="namedview9180"
     pagecolor="#505050"
     bordercolor="#eeeeee"
     borderopacity="1"
     inkscape:showpageshadow="0"
     inkscape:pageopacity="0"
     inkscape:pagecheckerboard="0"
     inkscape:deskcolor="#505050"
     showgrid="false"
     showguides="true"
     inkscape:zoom="4.0701756"
     inkscape:cx="121.86206"
     inkscape:cy="22.480602"
     inkscape:window-width="1920"
     inkscape:window-height="1018"
     inkscape:window-x="0"
     inkscape:window-y="25"
     inkscape:window-maximized="1"
     inkscape:current-layer="svg9178">
    <sodipodi:guide
       position="154.9661,41.514586"
       orientation="1,0"
       id="guide13259"
       inkscape:locked="false" />
    <sodipodi:guide
       position="85.127118,-0.18032823"
       orientation="0,-1"
       id="guide13261"
       inkscape:locked="false" />
  </sodipodi:namedview>
  <g
     id="g14944">
    <path
       d="M 2.99667,36.0856 H 5.99334 V 33.0812 6.01537 H 26.9899 c 1.6538,0 2.9967,-1.34633 2.9967,-3.00437 V 0 H 26.9899 2.99667 C 1.34288,0 0,1.34633 0,3.00437 V 6.00874 33.0679 c 0,1.6713 1.34288,3.0177 2.99667,3.0177 z M 14.9966,12.0241 h -2.9967 v 3.0044 c 0,1.658 1.3429,3.0043 2.9967,3.0043 h 5.9999 2.9967 v 3.0044 3.0044 h -2.9967 -3.0032 -2.9967 c -1.6538,0 -2.9967,1.3463 -2.9967,3.0043 v 3.0044 3.0044 c 0,1.658 1.3429,3.0043 2.9967,3.0043 h 2.9967 v -3.0043 -3.0044 h 5.9999 2.9967 c 1.6538,0 2.9967,-1.3463 2.9967,-3.0044 v -3.0043 -6.0021 -3.0044 c 0,-1.658 -1.3429,-3.0044 -2.9967,-3.0044 h -2.9967 z"
       fill="#ffffff"
       id="path9172" />
    <path
       d="M 46.6171,20.858 H 39.572 v 4.5297 h 5.8941 c 0.5424,0 0.9526,0.1261 1.2238,0.3648 0.2646,0.2454 0.4035,0.577 0.4035,0.9882 0,0.4112 -0.1389,0.7362 -0.4101,0.9816 -0.2779,0.2453 -0.6814,0.3647 -1.2172,0.3647 H 39.572 v 5.8297 c 0,0.7428 -0.1654,1.2933 -0.5028,1.6514 -0.3374,0.3581 -0.7607,0.5372 -1.2767,0.5372 -0.5292,0 -0.9658,-0.1791 -1.2966,-0.5438 -0.3307,-0.3648 -0.5027,-0.9086 -0.5027,-1.6382 V 20.281 c 0,-0.5173 0.0793,-0.9352 0.2315,-1.2601 0.1521,-0.325 0.3903,-0.5638 0.7144,-0.7163 0.3242,-0.1459 0.7409,-0.2255 1.2437,-0.2255 h 8.4343 c 0.5689,0 0.9923,0.126 1.2701,0.378 0.2779,0.2587 0.4168,0.5903 0.4168,0.9949 0,0.4178 -0.1389,0.756 -0.4168,1.0147 -0.2712,0.2653 -0.6946,0.3913 -1.2701,0.3913 z m 12.6681,13.3837 v -0.4245 c -0.3969,0.4974 -0.8071,0.9219 -1.2437,1.2601 -0.43,0.3383 -0.9063,0.5903 -1.4156,0.7561 -0.516,0.1658 -1.0981,0.2454 -1.7597,0.2454 -0.8004,0 -1.5082,-0.1658 -2.1367,-0.4974 -0.6284,-0.3316 -1.1179,-0.7826 -1.4619,-1.3663 -0.4102,-0.703 -0.6152,-1.7044 -0.6152,-3.0242 v -6.5327 c 0,-0.6632 0.1455,-1.154 0.4432,-1.479 0.2977,-0.3249 0.688,-0.4907 1.1775,-0.4907 0.4961,0 0.8997,0.1658 1.204,0.4974 0.3042,0.3316 0.4564,0.8223 0.4564,1.4789 v 5.2792 c 0,0.7627 0.0662,1.406 0.1918,1.9234 0.1257,0.5173 0.3573,0.9285 0.688,1.2203 0.3308,0.2918 0.7872,0.4443 1.3561,0.4443 0.5557,0 1.0783,-0.1658 1.5678,-0.4974 0.4895,-0.3316 0.8468,-0.7627 1.0717,-1.2933 0.1852,-0.4642 0.2778,-1.4922 0.2778,-3.0706 v -4.0059 c 0,-0.6566 0.1522,-1.1473 0.4565,-1.4789 0.3109,-0.3316 0.7078,-0.4974 1.1973,-0.4974 0.4895,0 0.8864,0.1658 1.1775,0.4907 0.2977,0.325 0.4498,0.8158 0.4498,1.479 v 9.5569 c 0,0.6301 -0.1455,1.0943 -0.4299,1.4127 -0.2911,0.3117 -0.6549,0.4709 -1.1048,0.4709 -0.4498,0 -0.8203,-0.1658 -1.1113,-0.4908 -0.2911,-0.325 -0.4366,-0.7826 -0.4366,-1.3662 z m 6.549,-11.2548 h 0.3638 v -1.983 c 0,-0.5306 0.0133,-0.9484 0.0397,-1.2469 0.0265,-0.305 0.1059,-0.5637 0.2315,-0.7826 0.1257,-0.2255 0.311,-0.4112 0.5557,-0.5504 0.2382,-0.1393 0.5028,-0.2123 0.8071,-0.2123 0.4167,0 0.7872,0.1592 1.1245,0.4709 0.225,0.2123 0.3639,0.4643 0.43,0.7694 0.0596,0.2984 0.0926,0.7295 0.0926,1.2866 v 2.2483 h 1.204 c 0.4631,0 0.8203,0.1127 1.065,0.3316 0.2448,0.2255 0.3705,0.504 0.3705,0.8489 0,0.4444 -0.1786,0.7561 -0.5292,0.9352 -0.3506,0.179 -0.8468,0.2652 -1.5017,0.2652 h -0.6152 v 6.0618 c 0,0.5173 0.0133,0.9153 0.053,1.1938 0.0396,0.2786 0.1323,0.5041 0.2844,0.6765 0.1588,0.1724 0.4168,0.2587 0.7674,0.2587 0.1918,0 0.4498,-0.0332 0.7806,-0.1062 0.3307,-0.0663 0.5887,-0.1061 0.7673,-0.1061 0.2646,0 0.5028,0.1061 0.7211,0.325 0.2117,0.2122 0.3175,0.4775 0.3175,0.7892 0,0.5306 -0.2911,0.9352 -0.8666,1.2137 -0.5821,0.2852 -1.409,0.4245 -2.4939,0.4245 -1.0254,0 -1.806,-0.1725 -2.3352,-0.5173 -0.5292,-0.3449 -0.8798,-0.8224 -1.0385,-1.4392 -0.1654,-0.6102 -0.2448,-1.4259 -0.2448,-2.4473 v -6.3271 h -0.43 c -0.4763,0 -0.8401,-0.1127 -1.0849,-0.3382 -0.2514,-0.2255 -0.377,-0.5107 -0.377,-0.8555 0,-0.3449 0.1323,-0.6301 0.3902,-0.849 0.2779,-0.2255 0.6549,-0.3382 1.1511,-0.3382 z m 17.0936,11.2548 v -0.4245 c -0.3969,0.4974 -0.8071,0.9219 -1.2437,1.2601 -0.4299,0.3383 -0.9062,0.5903 -1.4156,0.7561 -0.516,0.1658 -1.0981,0.2454 -1.7596,0.2454 -0.8005,0 -1.5083,-0.1658 -2.1367,-0.4974 -0.6285,-0.3316 -1.118,-0.7826 -1.462,-1.3663 -0.4101,-0.703 -0.6152,-1.7044 -0.6152,-3.0242 v -6.5327 c 0,-0.6632 0.1455,-1.154 0.4432,-1.479 0.2977,-0.3249 0.688,-0.4907 1.1775,-0.4907 0.4961,0 0.8997,0.1658 1.204,0.4974 0.3043,0.3316 0.4564,0.8223 0.4564,1.4789 v 5.2792 c 0,0.7627 0.0662,1.406 0.1919,1.9234 0.1256,0.5173 0.3572,0.9285 0.6879,1.2203 0.3308,0.2918 0.7872,0.4443 1.3561,0.4443 0.5557,0 1.0783,-0.1658 1.5678,-0.4974 0.4896,-0.3316 0.8468,-0.7627 1.0717,-1.2933 0.1852,-0.4642 0.2778,-1.4922 0.2778,-3.0706 v -4.0059 c 0,-0.6566 0.1522,-1.1473 0.4565,-1.4789 0.3109,-0.3316 0.7078,-0.4974 1.1973,-0.4974 0.4895,0 0.8865,0.1658 1.1775,0.4907 0.2977,0.325 0.4499,0.8158 0.4499,1.479 v 9.5569 c 0,0.6301 -0.1456,1.0943 -0.43,1.4127 -0.2911,0.3117 -0.6549,0.4709 -1.1048,0.4709 -0.4498,0 -0.8202,-0.1658 -1.1113,-0.4908 -0.2911,-0.325 -0.4366,-0.7826 -0.4366,-1.3662 z m 9.6317,-2.8983 v 2.7524 c 0,0.6698 -0.1588,1.1672 -0.4697,1.4988 -0.3109,0.3316 -0.7078,0.5041 -1.1907,0.5041 -0.4697,0 -0.8666,-0.1658 -1.1709,-0.5107 -0.3043,-0.3382 -0.4565,-0.8357 -0.4565,-1.4989 v -9.1789 c 0,-1.4789 0.5359,-2.2217 1.6009,-2.2217 0.5424,0 0.9394,0.1724 1.1775,0.5173 0.2448,0.3448 0.3771,0.8621 0.3969,1.5386 0.3903,-0.6765 0.7938,-1.1938 1.2106,-1.5386 0.4167,-0.3449 0.9658,-0.5173 1.6604,-0.5173 0.688,0 1.3627,0.1724 2.011,0.5173 0.6483,0.3448 0.9724,0.8091 0.9724,1.3794 0,0.4046 -0.1389,0.7362 -0.4167,0.9949 -0.2779,0.2653 -0.5755,0.3913 -0.8997,0.3913 -0.1191,0 -0.4101,-0.073 -0.8732,-0.2255 C 95.6487,25.6 95.2386,25.527 94.888,25.527 c -0.4829,0 -0.8732,0.126 -1.1841,0.378 -0.3043,0.2521 -0.5424,0.6301 -0.7144,1.1275 -0.1654,0.4974 -0.2845,1.0943 -0.3507,1.7841 -0.0463,0.6963 -0.0793,1.532 -0.0793,2.5268 z m 16.1145,-1.1341 h -6.437 c 0.007,0.7495 0.159,1.4127 0.45,1.983 0.291,0.5704 0.682,1.0015 1.171,1.2933 0.483,0.2918 1.026,0.4377 1.608,0.4377 0.397,0 0.754,-0.0464 1.078,-0.1392 0.331,-0.0929 0.642,-0.2322 0.946,-0.4311 0.311,-0.199 0.589,-0.4112 0.847,-0.6367 0.258,-0.2255 0.595,-0.5306 1.005,-0.9219 0.166,-0.1459 0.41,-0.2189 0.721,-0.2189 0.338,0 0.615,0.0929 0.82,0.2786 0.206,0.1791 0.311,0.4443 0.311,0.7826 0,0.2984 -0.119,0.6433 -0.35,1.0412 -0.232,0.398 -0.582,0.7826 -1.059,1.1408 -0.469,0.3647 -1.058,0.6698 -1.766,0.9086 -0.714,0.2454 -1.528,0.3647 -2.454,0.3647 -2.117,0 -3.758,-0.6035 -4.928,-1.8172 -1.1713,-1.207 -1.76,-2.8452 -1.76,-4.9144 0,-0.9749 0.1455,-1.8769 0.4299,-2.7125 0.2911,-0.8357 0.7141,-1.5453 1.2631,-2.1422 0.556,-0.5969 1.237,-1.0546 2.051,-1.3663 0.807,-0.3183 1.713,-0.4775 2.699,-0.4775 1.29,0 2.388,0.2719 3.308,0.8158 0.919,0.5438 1.607,1.2468 2.07,2.109 0.457,0.8622 0.688,1.7376 0.688,2.633 0,0.829 -0.238,1.3662 -0.714,1.6182 -0.476,0.252 -1.138,0.3714 -1.998,0.3714 z m -6.437,-1.8769 h 5.967 c -0.079,-1.1274 -0.383,-1.9697 -0.906,-2.5268 -0.529,-0.5571 -1.217,-0.8357 -2.077,-0.8357 -0.82,0 -1.495,0.2852 -2.018,0.8489 -0.536,0.5638 -0.86,1.3994 -0.966,2.5136 z"
       fill="#ffffff"
       id="path9174" />
    <path
       d="m 121.236,28.8964 h -3.281 v 5.0139 c 0,0.7162 -0.166,1.2601 -0.503,1.6315 -0.337,0.3714 -0.767,0.5571 -1.277,0.5571 -0.536,0 -0.972,-0.1791 -1.303,-0.5505 -0.331,-0.3648 -0.496,-0.9086 -0.496,-1.6116 V 20.2812 c 0,-0.7892 0.179,-1.353 0.542,-1.6912 0.364,-0.3383 0.933,-0.5041 1.727,-0.5041 h 4.591 c 1.356,0 2.401,0.1062 3.135,0.3117 0.722,0.199 1.35,0.5373 1.873,1.0015 0.529,0.4709 0.926,1.0413 1.197,1.7177 0.278,0.6765 0.41,1.4392 0.41,2.2881 0,1.804 -0.556,3.1702 -1.66,4.1053 -1.105,0.9219 -2.759,1.3862 -4.955,1.3862 z m -0.867,-8.1112 h -2.408 v 5.4185 h 2.408 c 0.847,0 1.548,-0.0929 2.117,-0.2653 0.562,-0.1791 0.992,-0.4642 1.297,-0.8688 0.297,-0.3979 0.443,-0.9351 0.443,-1.5851 0,-0.7826 -0.232,-1.4193 -0.688,-1.91 -0.509,-0.524 -1.568,-0.7893 -3.169,-0.7893 z m 17.623,13.4633 c -0.8,0.6168 -1.568,1.081 -2.309,1.3928 -0.747,0.3117 -1.581,0.4642 -2.5,0.4642 -0.847,0 -1.588,-0.1658 -2.223,-0.504 -0.635,-0.3316 -1.131,-0.7826 -1.475,-1.3596 -0.344,-0.5704 -0.516,-1.1938 -0.516,-1.857 0,-0.902 0.284,-1.6713 0.853,-2.308 0.569,-0.6367 1.357,-1.0612 2.355,-1.28 0.205,-0.0531 0.721,-0.1592 1.548,-0.325 0.827,-0.1658 1.542,-0.325 2.124,-0.4643 0.589,-0.1392 1.23,-0.3117 1.918,-0.5106 -0.039,-0.8688 -0.211,-1.5122 -0.522,-1.9167 -0.311,-0.4112 -0.953,-0.6102 -1.925,-0.6102 -0.834,0 -1.462,0.1128 -1.886,0.3515 -0.423,0.2321 -0.787,0.5837 -1.085,1.0545 -0.297,0.4643 -0.516,0.7694 -0.635,0.9219 -0.125,0.1459 -0.397,0.2255 -0.8,0.2255 -0.371,0 -0.688,-0.1194 -0.959,-0.3581 -0.265,-0.2322 -0.404,-0.5372 -0.404,-0.9086 0,-0.5837 0.205,-1.1474 0.615,-1.6979 0.411,-0.5504 1.052,-0.9948 1.919,-1.3529 0.866,-0.3515 1.951,-0.5306 3.248,-0.5306 1.442,0 2.586,0.1724 3.413,0.5173 0.827,0.3449 1.409,0.8821 1.753,1.6249 0.344,0.7428 0.516,1.7243 0.516,2.9513 0,0.7759 -0.006,1.4325 -0.006,1.9697 -0.007,0.5372 -0.007,1.1408 -0.014,1.804 0,0.6168 0.106,1.2667 0.311,1.9366 0.205,0.6698 0.305,1.1009 0.305,1.2932 0,0.3383 -0.159,0.65 -0.477,0.9219 -0.317,0.2786 -0.681,0.4178 -1.078,0.4178 -0.337,0 -0.668,-0.1591 -0.999,-0.4708 -0.344,-0.3316 -0.694,-0.7893 -1.065,-1.3928 z m -0.218,-4.7818 c -0.483,0.1791 -1.178,0.3648 -2.104,0.5638 -0.919,0.1989 -1.554,0.3448 -1.912,0.4377 -0.35,0.0928 -0.688,0.2785 -1.012,0.5438 -0.324,0.2719 -0.483,0.65 -0.483,1.1341 0,0.4974 0.192,0.9219 0.569,1.2734 0.377,0.3515 0.867,0.5306 1.482,0.5306 0.648,0 1.25,-0.1459 1.799,-0.4311 0.549,-0.2918 0.953,-0.6566 1.218,-1.1076 0.297,-0.4974 0.443,-1.3264 0.443,-2.4672 z m 9.274,7.05 0.305,-0.7362 -4.049,-10.2268 c -0.251,-0.5902 -0.377,-1.0213 -0.377,-1.28 0,-0.2785 0.073,-0.5438 0.218,-0.7892 0.146,-0.2387 0.344,-0.4311 0.596,-0.577 0.251,-0.1459 0.516,-0.2188 0.787,-0.2188 0.476,0 0.833,0.1525 1.072,0.4509 0.244,0.2985 0.449,0.7362 0.635,1.2999 l 2.785,8.1178 2.639,-7.5474 c 0.212,-0.6168 0.397,-1.0943 0.569,-1.4392 0.165,-0.3448 0.344,-0.5836 0.536,-0.703 0.192,-0.1194 0.456,-0.179 0.8,-0.179 0.245,0 0.483,0.0663 0.715,0.1989 0.225,0.1327 0.403,0.3117 0.529,0.5372 0.126,0.2255 0.185,0.4643 0.185,0.7163 -0.033,0.1525 -0.086,0.3714 -0.159,0.6499 -0.072,0.2786 -0.158,0.5704 -0.264,0.8556 l -4.293,11.2614 c -0.371,0.9948 -0.735,1.7708 -1.085,2.3345 -0.351,0.5638 -0.821,0.9948 -1.409,1.2999 -0.583,0.2985 -1.363,0.451 -2.355,0.451 -0.966,0 -1.687,-0.1061 -2.17,-0.3117 -0.483,-0.2122 -0.721,-0.5969 -0.721,-1.1474 0,-0.378 0.112,-0.6698 0.344,-0.8754 0.225,-0.2056 0.569,-0.3117 1.018,-0.3117 0.179,0 0.351,0.0265 0.516,0.0729 0.212,0.0465 0.391,0.073 0.543,0.073 0.377,0 0.675,-0.0597 0.886,-0.1658 0.219,-0.1128 0.41,-0.3117 0.582,-0.5836 0.199,-0.2786 0.404,-0.6898 0.622,-1.227 z"
       fill="#ffffff"
       id="path9176" />
    <path
       style="fill:#ffffff;fill-opacity:1;fill-rule:evenodd;stroke-width:0.0745132;stop-color:#000000"
       d="M 159.4757,12.925172 V 9.8497766 l 1.17033,0.00672 c 1.20063,0.0069 1.29515,0.011162 1.65513,0.074074 0.61222,0.1069984 1.0663,0.3492514 1.31854,0.7034434 0.24303,0.341275 0.3339,0.837741 0.24209,1.322703 -0.0968,0.511191 -0.41551,0.937786 -0.92023,1.231648 -0.0654,0.03806 -0.12273,0.07546 -0.12745,0.08311 -0.0105,0.01699 -0.0857,-0.07947 1.1352,1.457662 l 1.00976,1.271393 -0.86688,-7.22e-4 -0.86688,-7.22e-4 -0.3334,-0.420546 c -0.18337,-0.2313 -0.59548,-0.750158 -0.91579,-1.153018 l -0.58239,-0.732474 h -0.25455 -0.25453 v 1.153741 1.153741 h -0.70447 -0.70448 z m 2.3291,-0.566182 c 0.45549,-0.101319 0.67357,-0.324805 0.67589,-0.692663 0.003,-0.397185 -0.2973,-0.523617 -1.24162,-0.523617 h -0.35442 v 0.631935 0.631934 l 0.39011,-0.0083 c 0.31562,-0.0066 0.41682,-0.01418 0.53004,-0.03936 z"
       id="path1232" />
    <g
       id="g1237"
       style="fill:#ffffff;fill-opacity:1"
       transform="scale(0.90637302,0.90822033)">
      <path
         style="fill:#ffffff;fill-opacity:1;fill-rule:evenodd;stroke-width:0.0821267;stop-color:#000000"
         d="m 177.77958,20.648997 c -1.14126,-0.09355 -2.24116,-0.494446 -3.21437,-1.171594 -1.32217,-0.919952 -2.29344,-2.460032 -2.56769,-4.071411 -0.0668,-0.392707 -0.0833,-0.600217 -0.0833,-1.0479 0,-0.63183 0.0605,-1.094346 0.21706,-1.660599 0.31487,-1.138587 1.01538,-2.25318 1.90964,-3.0384947 1.0213,-0.8968772 2.22383,-1.4263046 3.54648,-1.5613761 0.35008,-0.035751 1.0997,-0.02689 1.42077,0.016794 1.69262,0.2302944 3.20553,1.1186463 4.23258,2.4852918 0.67909,0.90363 1.08295,1.901088 1.22734,3.031286 0.0423,0.330874 0.0425,1.108769 5.1e-4,1.437481 -0.1301,1.017295 -0.49106,1.964768 -1.08255,2.841531 -0.20791,0.308184 -0.40401,0.547358 -0.68351,0.833681 -0.5116,0.524075 -1.01273,0.88852 -1.68923,1.228503 -0.68715,0.345337 -1.31243,0.542238 -2.02776,0.638543 -0.24536,0.03303 -0.98387,0.05647 -1.20592,0.03826 z m 1.17005,-1.04165 c 1.56339,-0.236244 2.9568,-1.166609 3.75136,-2.504749 0.77488,-1.304991 0.96974,-2.832952 0.5417,-4.247748 -0.16266,-0.537654 -0.46559,-1.154463 -0.7938,-1.616268 -0.4608,-0.648385 -1.06869,-1.174969 -1.79434,-1.5543522 -0.8753,-0.457622 -1.74909,-0.6527069 -2.71617,-0.6064222 -1.44347,0.069084 -2.89153,0.8011631 -3.78281,1.9124224 -0.61784,0.770339 -0.99724,1.630834 -1.15318,2.615482 -0.031,0.195824 -0.0358,0.295881 -0.0358,0.75238 0,0.456498 0.005,0.556556 0.0358,0.75238 0.14041,0.886586 0.45643,1.666493 0.96298,2.37655 0.80331,1.126051 2.124,1.924312 3.50499,2.118519 0.34033,0.04786 0.34484,0.04809 0.81903,0.04234 0.32819,-0.004 0.48005,-0.0133 0.66024,-0.04053 z"
         id="path1234" />
    </g>
  </g>
</svg>
